<svg width="28" height="28" viewBox="0 0 28 28" fill="none" xmlns="http://www.w3.org/2000/svg">
<g clip-path="url(#clip0_29_177)">
<path d="M24.2298 12.5622C25.0239 18.212 21.0875 23.4358 15.4376 24.2299M24.2298 12.5622C23.4358 6.91235 18.212 2.97594 12.5622 3.76997M24.2298 12.5622L3.76996 15.4376M15.4376 24.2299C9.78779 25.0239 4.564 21.0875 3.76996 15.4376M15.4376 24.2299C12.4232 21.8409 10.4432 18.3839 9.90793 14.575C9.37263 10.7661 10.323 6.89729 12.5622 3.76997M15.4376 24.2299C17.6768 21.1025 18.6272 17.2337 18.0919 13.4248C17.5566 9.61595 15.5766 6.15895 12.5622 3.76997M12.5622 3.76997C6.91234 4.564 2.97593 9.7878 3.76996 15.4376" stroke="white" stroke-width="2.06593" stroke-linecap="round"/>
</g>
<defs>
<clipPath id="clip0_29_177">
<rect width="24" height="24" fill="white" transform="translate(0 3.45019) scale(1.03296) rotate(-8)"/>
</clipPath>
</defs>
</svg>
